<svg width="457" height="85" viewBox="0 0 457 85" fill="none" xmlns="http://www.w3.org/2000/svg">
<path d="M40.0431 3.52547C50.0407 3.52547 58.144 6.99833 64.3004 13.944C70.4568 20.8897 73.5614 29.9928 73.5614 41.3585C73.5614 48.8304 72.1407 55.4604 69.3519 61.1433C66.563 66.8788 62.6166 71.2988 57.5126 74.4559C52.4085 77.613 46.5678 79.1916 39.9904 79.1916H16.7328V3.52547H40.0431ZM40.0431 0H0L0.105238 1.15762H1.52595C3.47285 1.15762 5.2619 1.78905 6.78785 3.10452C8.3138 4.42 9.10309 5.99857 9.10309 7.89285V74.0349C8.99785 76.0871 8.26118 77.8235 6.78785 79.2968C5.31452 80.7702 3.57809 81.5068 1.52595 81.5068H0V82.6645H40.0431C52.619 82.6645 62.8797 78.8759 70.7199 71.2461C78.5602 63.669 82.454 53.6714 82.454 41.3059C82.454 28.9405 78.5602 18.9428 70.7199 11.3657C62.8271 3.78857 52.619 0 40.0431 0Z" fill="white"/>
<path d="M234.472 81.5024V82.66H282.408L288.88 65.7693H287.723C286.407 68.6107 285.039 70.8733 283.776 72.6098C282.461 74.3462 280.567 75.8195 278.093 77.0824C275.62 78.3452 272.568 78.9767 268.938 78.9767H250.416V48.9838H270.99C271.674 49.0891 272.358 49.1943 272.989 49.4574C274.621 50.2467 275.463 51.72 275.463 53.93V55.456H276.778V38.9336H275.463V40.4596C275.463 41.8803 275.042 43.0379 274.2 43.985C273.358 44.9322 272.148 45.4057 270.622 45.4057H250.416V15.4129H274.989C276.725 15.4129 278.146 15.9917 279.251 17.202C280.356 18.3596 280.882 19.7803 280.882 21.4641V23.2532L282.198 23.3584V9.88794C281.514 10.2037 279.935 10.572 277.462 11.0456C275.042 11.5191 272.2 11.7296 268.938 11.7296H234.42V12.8872H236.051C237.945 12.8872 239.576 13.466 240.892 14.6763C242.207 15.8339 242.891 17.3072 242.891 19.0436V75.1355C242.786 76.8719 242.102 78.3452 240.839 79.5555C239.524 80.7657 237.945 81.3971 236.051 81.3971H234.472V81.5024ZM220.423 12.9925V11.8348H198.113V12.9925H200.112C201.849 12.9925 203.322 13.5713 204.585 14.7289C205.848 15.8865 206.532 17.2546 206.689 18.9384V67.9793L145.388 10.151L144.073 10.0458L144.283 11.9401C144.81 15.7286 145.125 19.9908 145.125 24.8317V75.3986C145.125 77.135 144.494 78.6083 143.231 79.7659C141.968 80.9236 140.442 81.555 138.601 81.555H136.601V82.7126H158.911V81.555H156.912C155.123 81.555 153.544 80.9762 152.281 79.7659C151.019 78.6083 150.387 77.135 150.387 75.3986V26.0946L211.899 84.3438H212.951L212.741 82.239C212.214 78.1348 211.899 73.82 211.899 69.2421V18.8858C211.951 17.2546 212.635 15.8339 213.898 14.6763C215.161 13.5186 216.634 12.9398 218.371 12.9398H220.423V12.9925ZM95.9266 81.5024V82.66H122.762L122.657 81.5024H121.131C119.026 81.5024 117.132 80.8709 115.553 79.6607C113.975 78.4505 113.133 76.9771 113.08 75.2407V19.0963C113.238 17.3598 114.08 15.8865 115.606 14.7289C117.132 13.5713 118.974 12.9398 121.078 12.9398H122.604V11.7822H95.9266V12.9398H97.4525C99.6625 12.9398 101.557 13.5713 103.135 14.8341C104.714 16.097 105.503 17.5703 105.503 19.3067V75.0828C105.503 76.8193 104.714 78.2926 103.135 79.5555C101.557 80.8183 99.7151 81.4497 97.5578 81.4497H95.9266V81.5024Z" fill="white"/>
<path d="M457 12.9969V11.8393H434.689V12.9969H436.689C438.425 12.9969 439.899 13.5757 441.161 14.7333C442.424 15.8909 443.108 17.259 443.266 18.9428V67.9837L382.018 10.1555L380.702 10.0502L380.913 11.9445C381.439 15.7331 381.755 19.9952 381.755 24.8362V75.403C381.755 77.1394 381.123 78.6127 379.86 79.7704C378.597 80.928 377.072 81.5594 375.23 81.5594H373.23V82.717H395.541V81.5594H393.541C391.752 81.5594 390.174 80.9806 388.911 79.7704C387.648 78.6127 387.017 77.1394 387.017 75.403V26.099L448.528 84.3482H449.581L449.37 82.2434C448.844 78.1392 448.528 73.8244 448.528 69.2466V18.8902C448.581 17.259 449.265 15.8383 450.528 14.6807C451.791 13.5231 453.264 12.9443 455 12.9443H457V12.9969ZM332.872 81.5068V82.6644H358.76V81.5068H357.234C355.182 81.5068 353.393 80.7701 351.92 79.2968C350.446 77.8235 349.657 76.087 349.657 74.0349V8.47165C349.71 6.41951 350.499 4.68309 351.972 3.26238C353.446 1.84166 355.182 1.15762 357.234 1.15762H358.76V0H332.872V1.15762H334.398C336.45 1.15762 338.186 1.84166 339.659 3.26238C341.133 4.68309 341.869 6.41951 341.975 8.47165V74.0349C341.869 76.087 341.133 77.8235 339.659 79.2968C338.186 80.7701 336.45 81.5068 334.398 81.5068H332.872Z" fill="white"/>
</svg>
